# AST/ASF file generated using VICON BodyLanguage
# -----------------------------------------------
:version 1.10
:name VICON
:units
  mass 1.0
  length 0.45
  angle deg
:documentation
   .ast/.asf automatically generated from VICON data using
   VICON BodyBuilder and BodyLanguage model FoxedUp or BRILLIANT.MOD
:root
   order TX TY TZ RX RY RZ
   axis XYZ
   position 0 0 0  
   orientation 0 0 0 
:bonedata
  begin
     id 1 
     name lhipjoint
     direction 0.521689 -0.742065 0.420928 
     length 2.47002 
     axis 0 0 0  XYZ
  end
  begin
     id 2 
     name lfemur
     direction 0.34202 -0.939693 0  
     length 7.24654  
     axis 0 0 20  XYZ
    dof rx ry rz
    limits (-160.0 20.0)
           (-70.0 70.0)
           (-60.0 70.0)
  end
  begin
     id 3 
     name ltibia
     direction 0.34202 -0.939693 0   
     length 8.04849   
     axis 0 0 20   XYZ
    dof rx
    limits (-10.0 170.0)
  end
  begin
     id 4 
     name lfoot
     direction 0.0745411 -0.2048 0.975961   
     length 1.72367   
     axis -90 7.62852e-016 20   XYZ
    dof rx rz
    limits (-45.0 90.0)
           (-70.0 20.0)
  end
  begin
     id 5 
     name ltoes
     direction 1.53556e-011 -4.21901e-011 1   
     length 0.87311   
     axis -90 7.62852e-016 20   XYZ
    dof rx
    limits (-90.0 20.0)
  end
  begin
     id 6 
     name rhipjoint
     direction -0.52849 -0.738415 0.418857   
     length 2.48223  
     axis 0 0 0  XYZ 
  end
  begin
     id 7 
     name rfemur
     direction -0.34202 -0.939693 0   
     length 7.15571   
     axis 0 0 -20   XYZ
    dof rx ry rz
    limits (-160.0 20.0)
           (-70.0 70.0)
           (-70.0 60.0)
  end
  begin
     id 8 
     name rtibia
     direction -0.34202 -0.939693 0   
     length 7.81659   
     axis 0 0 -20   XYZ
    dof rx
    limits (-10.0 170.0)
 end
 begin
     id 9 
     name rfoot
     direction -0.0917348 -0.252039 0.963359   
     length 1.84382  
     axis -90 -7.62852e-016 -20   XYZ
    dof rx rz
    limits (-45.0 90.0)
           (-20.0 70.0)
  end
  begin
     id 10 
     name rtoes
     direction -1.53551e-011 -4.21879e-011 1   
     length 0.927771   
     axis -90 -7.62852e-016 -20   XYZ
    dof rx
    limits (-90.0 20.0)
  end
  begin
     id 11 
     name lowerback
     direction 0.00583058 0.999822 0.0179296   
     length 2.1429   
     axis 0 0 0   XYZ
    dof rx ry rz
    limits (-20.0 45.0)
           (-30.0 30.0)
           (-30.0 30.0)
  end
  begin
     id 12 
     name upperback
     direction -0.0137999 0.999752 -0.0175071   
     length 2.14252   
     axis 0 0 0   XYZ
    dof rx ry rz
    limits (-20.0 45.0)
           (-30.0 30.0)
           (-30.0 30.0)
  end
  begin
     id 13 
     name thorax
     direction -0.0158036 0.99955 -0.0254909   
     length 2.1383   
     axis 0 0 0   XYZ
    dof rx ry rz
    limits (-20.0 45.0)
           (-30.0 30.0)
           (-30.0 30.0)
  end
  begin
     id 14 
     name lowerneck
     direction -0.0101179 0.999403 -0.0330262   
     length 1.65808   
     axis 0 0 0   XYZ
    dof rx ry rz
    limits (-20.0 45.0)
           (-30.0 30.0)
           (-30.0 30.0)
  end
  begin
     id 15 
     name upperneck
     direction 0.0497734 0.995978 -0.074501   
     length 1.5897   
     axis 0 0 0   XYZ
    dof rx ry rz
    limits (-20.0 45.0)
           (-30.0 30.0)
           (-30.0 30.0)
  end
  begin
     id 16
     name head
     direction 0.0189524 0.999519 -0.0245438  
     length 1.74024  
     axis 0 0 0   XYZ
    dof rx ry rz
    limits (-20.0 45.0)
           (-30.0 30.0)
           (-30.0 30.0)
  end
  begin
     id 17 
     name lclavicle
     direction 0.945604 0.324422 0.0241537  
     length 3.59089  
     axis 0 0 0   XYZ
    dof ry rz
    limits (-20.0 10.0)
           (0.0 20.0)
  end
  begin
     id 18 
     name lhumerus
     direction 1 -4.48964e-011 -2.63524e-027   
     length 5.2391   
     axis 180 -30 -90   XYZ
    dof rx ry rz
    limits (-60.0 90.0)
           (-90.0 90.0)
           (-90.0 90.0)
  end
  begin
     id 19
     name lradius
     direction 1 -4.48969e-011 3.86978e-028   
     length 3.31467   
     axis 180 -30 -90   XYZ
    dof rx
    limits (-10.0 170.0)
  end
  begin
     id 20
     name lwrist
     direction 1 -4.48963e-011 7.20928e-028   
     length 1.65734   
     axis -5.52449e-016 90 90   XYZ
    dof ry
    limits (-180.0 0.0)
 end
  begin
     id 21 
     name lhand
     direction 1 -4.48964e-011 1.44186e-027   
     length 0.9659   
     axis -9.20027e-016 90 90   XYZ
    dof rx rz
    limits (-90.0 90.0)
           (-45.0 45.0)
  end
  begin
     id 22 
     name lfingers
     direction 1 -4.48965e-011 2.88371e-027   
     length 0.778733   
     axis -1.84005e-015 90 90   XYZ
    dof rx
    limits (0.0 90.0)
  end
  begin
     id 23
     name lthumb
     direction 0.707107 -6.34931e-011 0.707107   
     length 1.11811   
     axis -90 45 2.85299e-015   XYZ
    dof rx rz
    limits (-45.0 45.0)
           (-45.0 45.0)
  end
  begin
     id 24 
     name rclavicle
     direction -0.923762 0.370785 0.0958234   
     length 3.54196  
     axis 0 0 0   XYZ 
    dof ry rz
    limits (-10.0 20.0)
           (-20.0 0.0)
  end
  begin
     id 25 
     name rhumerus
     direction -1 -4.48966e-011 1.18702e-017  
     length 5.30252   
     axis 180 30 90   XYZ
    dof rx ry rz
    limits (-90.0 60.0)
           (-90.0 90.0)
           (-90.0 90.0)
  end
  begin
     id 26 
     name rradius
     direction -1 -4.48966e-011 4.46736e-027   
     length 3.67875   
     axis 180 30 90   XYZ
    dof rx
    limits (-10.0 170.0)
  end
  begin
     id 27 
     name rwrist
     direction -1 -4.48966e-011 7.20928e-028   
     length 1.83937   
     axis -5.52449e-016 -90 -90   XYZ
    dof ry
    limits (-180.0 0.0)
  end
  begin
     id 28
     name rhand
     direction -1 -4.48973e-011 1.44186e-027   
     length 0.594811   
     axis -9.20027e-016 -90 -90   XYZ
    dof rx rz
    limits (-90.0 90.0)
           (-45.0 45.0)
  end
  begin
     id 29
     name rfingers
     direction -1 -4.48963e-011 2.88371e-027   
     length 0.479552   
     axis -1.84005e-015 -90 -90   XYZ
    dof rx
    limits (0.0 90.0)
  end
  begin
     id 30
     name rthumb
     direction -0.707107 -6.34932e-011 0.707107   
     length 0.688544   
     axis -90 -45 -2.85299e-015   XYZ
    dof rx rz
    limits (-45.0 45.0)
           (-45.0 45.0)
  end
:hierarchy
  begin
    root lhipjoint rhipjoint lowerback
    lhipjoint lfemur
    lfemur ltibia
    ltibia lfoot
    lfoot ltoes
    rhipjoint rfemur
    rfemur rtibia
    rtibia rfoot
    rfoot rtoes
    lowerback upperback
    upperback thorax
    thorax lowerneck lclavicle rclavicle
    lowerneck upperneck
    upperneck head
    lclavicle lhumerus
    lhumerus lradius
    lradius lwrist
    lwrist lhand lthumb
    lhand lfingers
    rclavicle rhumerus
    rhumerus rradius
    rradius rwrist
    rwrist rhand rthumb
    rhand rfingers
  end

#!OML:ASF E:\acrobat2\Project_11_07_03\Capture day 1\Session 1\Acrobat.ASF
:FULLY-SPECIFIED
:DEGREES
927
root 13.5684 15.9631 1.0769 -447.349 -33.8083 -173.937
lowerback 20.4056 1.52472 -2.8969
upperback 13.8208 -0.054423 0.667532
thorax 3.61167 -0.679129 2.32822
lowerneck 4.8474 -1.1152 0.626418
upperneck -32.9917 -6.09282 -10.3059
head -11.983 -2.78617 -3.07918
rclavicle 2.70347e-014 4.85035e-014
rhumerus 61.4533 -0.363986 -49.9521
rradius 27.6431
rwrist -9.04999
rhand -28.3281 -64.2717
rfingers 7.12502
rthumb -1.70282 -265.755
lclavicle 2.70347e-014 4.85035e-014
lhumerus 80.2028 14.4684 32.8846
lradius 22.2264
lwrist -4.70185
lhand -54.8721 -63.8293
lfingers 7.12502
lthumb -27.2578 -35.7791
rfemur -101.028 -13.6876 19.57
rtibia 73.1306
rfoot 336.909 -12.8859
rtoes -16.4442
lfemur 62.7068 157.91 148.535
ltibia 78.4582
lfoot 347.847 -14.552
ltoes 41.346
928
root 13.5932 16.0719 1.07493 -448.53 -35.2127 -173.218
lowerback 21.3127 1.40182 -2.83133
upperback 14.0656 -0.294016 0.779863
thorax 3.45571 -0.81286 2.45853
lowerneck 5.11691 -0.80402 0.351351
upperneck -33.8196 -5.60871 -9.86734
head -12.326 -2.56821 -2.93596
rclavicle -2.94201e-014 -1.03368e-014
rhumerus 61.6525 0.563459 -49.0927
rradius 29.2361
rwrist -8.36317
rhand -27.6241 -63.2491
rfingers 7.12502
rthumb -1.02288 -266.774
lclavicle -2.94201e-014 -1.03368e-014
lhumerus 77.3739 16.273 25.3085
lradius 23.2724
lwrist 1.30316
lhand -54.8599 -62.0731
lfingers 7.12502
lthumb -27.2461 -34.0211
rfemur -102.722 -13.219 20.0043
rtibia 73.5194
rfoot 336.437 -12.6276
rtoes -16.6953
lfemur 60.6027 159.498 145.676
ltibia 79.6445
lfoot 350.031 -15.6612
ltoes 43.7085
929
root 13.6214 16.1669 1.07167 -449.875 -36.6504 -172.418
lowerback 22.2765 1.29259 -2.76505
upperback 14.2855 -0.513348 0.890129
thorax 3.24924 -0.935311 2.58904
lowerneck 5.27923 -0.484272 0.141281
upperneck -34.4417 -5.08853 -9.50376
head -12.5693 -2.33614 -2.83474
rclavicle 5.1684e-014 -4.21423e-014
rhumerus 61.7158 1.55421 -48.4057
rradius 30.9057
rwrist -7.44573
rhand -27.0323 -62.156
rfingers 7.12502
rthumb -0.451246 -267.865
lclavicle 5.1684e-014 -4.21423e-014
lhumerus 73.7834 17.5264 16.999
lradius 24.5828
lwrist 7.85165
lhand -54.8888 -60.3708
lfingers 7.12502
lthumb -27.2738 -32.3232
rfemur -104.289 -12.7529 20.4704
rtibia 73.7336
rfoot 336.044 -12.3872
rtoes -16.992
lfemur 58.8688 161.082 143.02
ltibia 80.6243
lfoot 352.738 -16.5977
ltoes 45.4677
930
root 13.6529 16.2483 1.06864 -451.385 -38.1285 -171.523
lowerback 23.2626 1.18658 -2.68599
upperback 14.4899 -0.72304 1.0021
thorax 3.02118 -1.05188 2.71836
lowerneck 5.32187 -0.157052 0.0529001
upperneck -34.8671 -4.55244 -9.28222
head -12.7134 -2.09898 -2.80973
rclavicle 4.45278e-014 -1.74931e-014
rhumerus 61.664 2.61718 -47.8804
rradius 32.6642
rwrist -6.41706
rhand -26.7242 -61.038
rfingers 7.12502
rthumb -0.153757 -268.982
lclavicle 4.45278e-014 -1.74931e-014
lhumerus 70.1285 18.097 9.28112
lradius 25.7653
lwrist 13.7375
lhand -54.9494 -58.8926
lfingers 7.12502
lthumb -27.3318 -30.8541
rfemur -105.752 -12.2931 20.9927
rtibia 73.7902
rfoot 335.743 -12.1479
rtoes -17.2852
lfemur 57.4736 162.617 140.591
ltibia 81.4053
lfoot 355.252 -17.2645
ltoes 46.7797
931
root 13.6873 16.3164 1.06564 -453.105 -39.637 -170.486
lowerback 24.2839 1.11157 -2.62496
upperback 14.6813 -0.895159 1.13204
thorax 2.76717 -1.15249 2.87593
lowerneck 5.22229 0.165523 0.0955617
upperneck -35.0113 -4.01871 -9.22824
head -12.7135 -1.85899 -2.86827
rclavicle -2.52854e-013 -7.95139e-016
rhumerus 61.4763 3.73116 -47.4981
rradius 34.5284
rwrist -5.35742
rhand -26.8306 -59.9327
rfingers 7.12502
rthumb -0.256432 -89.9122
lclavicle -2.52854e-013 -7.95139e-016
lhumerus 67.0288 18.0774 3.01461
lradius 26.5508
lwrist 18.2713
lhand -55.0194 -57.6084
lfingers 7.12502
lthumb -27.3987 -29.5804
rfemur -107.076 -11.811 21.5583
rtibia 73.6806
rfoot 335.531 -11.839
rtoes -17.4136
lfemur 56.413 164.011 138.414
ltibia 81.9761
lfoot 357.614 -17.7608
ltoes 47.8702
932
root 13.725 16.3712 1.06416 -455.006 -41.1775 -169.298
lowerback 25.2745 1.05362 -2.56514
upperback 14.8595 -1.04062 1.27898
thorax 2.51922 -1.24148 3.05135
lowerneck 5.08604 0.471517 0.31927
upperneck -35.0847 -3.53358 -9.34694
head -12.6836 -1.64687 -3.01889
rclavicle -5.08889e-014 1.74931e-014
rhumerus 61.1766 4.88948 -47.3195
rradius 36.472
rwrist -4.2357
rhand -27.3714 -58.8369
rfingers 7.12502
rthumb -0.778815 -88.8153
lclavicle -5.08889e-014 1.74931e-014
lhumerus 64.7825 17.7116 -1.306
lradius 26.8459
lwrist 21.0307
lhand -55.0726 -56.4872
lfingers 7.12502
lthumb -27.4496 -28.4673
rfemur -108.287 -11.3134 22.1696
rtibia 73.3968
rfoot 335.394 -11.4011
rtoes -17.1626
lfemur 55.627 165.241 136.519
ltibia 82.3354
lfoot 359.842 -18.1112
ltoes 48.8046
933
root 13.7659 16.4124 1.066 -457.057 -42.7447 -167.955
lowerback 26.1812 0.98285 -2.47409
upperback 15.0152 -1.18514 1.42509
thorax 2.29098 -1.32755 3.21058
lowerneck 4.85944 0.781855 0.53363
upperneck -34.9723 -3.02275 -9.46985
head -12.5499 -1.41671 -3.16605
rclavicle -2.70347e-014 -2.38542e-014
rhumerus 60.7817 6.10419 -47.4084
rradius 38.4557
rwrist -2.98146
rhand -28.2279 -57.7016
rfingers 7.12502
rthumb -1.60604 -87.6753
lclavicle -2.70347e-014 -2.38542e-014
lhumerus 63.0632 17.1506 -4.36931
lradius 26.8722
lwrist 22.6649
lhand -55.1038 -55.4711
lfingers 7.12502
lthumb -27.4794 -27.4559
rfemur -109.419 -10.8136 22.8468
rtibia 72.9579
rfoot 335.336 -10.8022
rtoes -16.6202
lfemur 55.0713 166.311 134.934
ltibia 82.4673
lfoot 361.879 -18.306
ltoes 49.5486
934
root 13.811 16.4397 1.06998 -459.291 -44.309 -166.41
lowerback 27.0013 0.906157 -2.37464
upperback 15.1363 -1.3222 1.55504
thorax 2.06763 -1.4075 3.34785
lowerneck 4.61167 1.0967 0.686089
upperneck -34.7727 -2.48422 -9.52306
head -12.3701 -1.1689 -3.27281
rclavicle 2.54444e-014 9.54166e-015
rhumerus 60.2713 7.38191 -47.8139
rradius 40.4394
rwrist -1.51453
rhand -29.2541 -56.4494
rfingers 7.12502
rthumb -2.5971 -86.4133
lclavicle 2.54444e-014 9.54166e-015
lhumerus 61.4051 16.3657 -7.18262
lradius 26.9134
lwrist 24.1256
lhand -55.1388 -54.5909
lfingers 7.12502
lthumb -27.5129 -26.581
rfemur -110.456 -10.2835 23.5733
rtibia 72.3672
rfoot 335.396 -10.0082
rtoes -16.0487
lfemur 54.7119 167.168 133.629
ltibia 82.3568
lfoot 363.669 -18.327
ltoes 50.093
935
root 13.8592 16.4538 1.07002 -461.905 -45.8332 -164.588
lowerback 27.914 0.855791 -2.3209
upperback 15.2403 -1.43824 1.6629
thorax 1.78657 -1.47974 3.48845
lowerneck 4.38286 1.41024 0.825049
upperneck -34.5816 -1.94241 -9.53406
head -12.1977 -0.921322 -3.35854
rclavicle -5.08889e-014 -6.04305e-014
rhumerus 59.6413 8.73616 -48.5559
rradius 42.3983
rwrist 0.206953
rhand -30.2961 -55.0087
rfingers 7.12502
rthumb -3.60343 -84.958
lclavicle -5.08889e-014 -6.04305e-014
lhumerus 60.8527 15.9547 -7.70434
lradius 26.0207
lwrist 23.4151
lhand -55.0021 -53.9718
lfingers 7.12502
lthumb -27.3822 -25.9412
rfemur -111.194 -9.6675 24.3053
rtibia 71.5905
rfoot 335.632 -9.00455
rtoes -15.8858
lfemur 54.6278 167.642 132.578
ltibia 82.0117
lfoot 365.099 -18.2138
ltoes 50.3115
936
root 13.9106 16.4544 1.0672 -464.86 -47.3006 -162.52
lowerback 28.8755 0.807117 -2.28744
upperback 15.3252 -1.556 1.74053
thorax 1.46727 -1.55267 3.6133
lowerneck 4.12845 1.74281 0.923286
upperneck -34.3378 -1.3672 -9.52259
head -11.9963 -0.652111 -3.42742
rclavicle 5.24792e-014 8.26944e-014
rhumerus 58.8486 10.1531 -49.5723
rradius 44.3533
rwrist 2.1229
rhand -31.1802 -53.2719
rfingers 7.12502
rthumb -4.45717 -83.205
lclavicle 5.24792e-014 8.26944e-014
lhumerus 60.1925 15.3897 -8.18869
lradius 25.2633
lwrist 22.7087
lhand -54.8653 -53.5911
lfingers 7.12502
lthumb -27.2513 -25.5399
rfemur -111.666 -9.00412 25.03
rtibia 70.6457
rfoot 336.046 -7.85237
rtoes -16.3574
lfemur 54.7997 167.764 131.829
ltibia 81.4526
lfoot 366.009 -18.0691
ltoes 49.9739
937
root 13.9652 16.4413 1.06002 -468.199 -48.6887 -160.207
lowerback 29.9167 0.765633 -2.28062
upperback 15.3994 -1.67477 1.78964
thorax 1.10702 -1.62716 3.72876
lowerneck 3.82843 2.09081 0.970844
upperneck -34.0137 -0.766235 -9.49695
head -11.7529 -0.362035 -3.47833
rclavicle 5.08889e-014 2.8625e-014
rhumerus 57.8462 11.61 -50.7854
rradius 46.3307
rwrist 4.13317
rhand -31.9624 -51.3904
rfingers 7.12502
rthumb -5.21243 -81.3063
lclavicle 5.08889e-014 2.8625e-014
lhumerus 59.4434 14.6582 -8.68233
lradius 24.6027
lwrist 22.0454
lhand -54.7177 -53.4594
lfingers 7.12502
lthumb -27.1101 -25.3861
rfemur -111.846 -8.32084 25.78
rtibia 69.5574
rfoot 336.652 -6.50532
rtoes -17.3031
lfemur 55.2461 167.53 131.362
ltibia 80.6892
lfoot 366.507 -17.8972
ltoes 49.2438
938
root 14.0227 16.4143 1.04987 -471.871 -49.981 -157.693
lowerback 30.996 0.713785 -2.28028
upperback 15.4642 -1.80992 1.80435
thorax 0.726806 -1.70875 3.81979
lowerneck 3.58323 2.45455 1.08912
upperneck -33.7613 -0.168504 -9.55881
head -11.5519 -0.0714831 -3.57521
rclavicle 5.56597e-014 7.63333e-014
rhumerus 56.6021 13.0893 -52.1223
rradius 48.3548
rwrist 6.10019
rhand -32.6197 -49.3784
rfingers 7.12502
rthumb -5.84706 -79.2777
lclavicle 5.56597e-014 7.63333e-014
lhumerus 58.6546 13.7592 -9.18263
lradius 23.978
lwrist 21.3975
lhand -54.5601 -53.5639
lfingers 7.12502
lthumb -26.9593 -25.4672
rfemur -111.777 -7.662 26.5316
rtibia 68.3665
rfoot 337.408 -4.92905
rtoes -18.218
lfemur 55.9724 166.991 131.197
ltibia 79.7105
lfoot 366.645 -17.713
ltoes 48.185
939
root 14.0827 16.3735 1.03797 -475.793 -51.1553 -155.041
lowerback 32.0635 0.639027 -2.28223
upperback 15.5145 -1.97186 1.77988
thorax 0.34318 -1.801 3.88029
lowerneck 3.35064 2.82941 1.25201
upperneck -33.5351 0.426526 -9.68711
head -11.3636 0.220691 -3.70279
rclavicle 6.36111e-014 2.38542e-014
rhumerus 55.0973 14.5731 -53.4928
rradius 50.4436
rwrist 7.85345
rhand -33.1862 -47.3229
rfingers 7.12502
rthumb -6.39397 -77.2064
lclavicle 6.36111e-014 2.38542e-014
lhumerus 57.8965 12.697 -9.65038
lradius 23.3267
lwrist 20.7164
lhand -54.4015 -53.8132
lfingers 7.12502
lthumb -26.8076 -25.6931
rfemur -111.53 -7.07784 27.273
rtibia 67.1223
rfoot 338.297 -3.08619
rtoes -18.5676
lfemur 56.9842 166.233 131.311
ltibia 78.4957
lfoot 365.256 -17.3792
ltoes 46.9522
